<?xml version="1.0"?>
<svg version="1.1" xmlns="http://www.w3.org/2000/svg" width="400" height="50" style=""><path fill="#" d="M15.751953125,38.685546875q0-0.08203125,0.0546875-0.5810546875t0.1435546875-1.216796875t0.1982421875-1.544921875t0.19140625-1.5654296875t0.1435546875-1.298828125t0.0615234375-0.751953125q-0.109375-0.0546875-0.2666015625-0.1572265625t-0.1572265625-0.2392578125q0-0.19140625,0.1845703125-0.3076171875t0.3212890625-0.1708984375q0.0546875-0.697265625,0.13671875-1.94140625t0.2529296875-2.6865234375t0.478515625-2.92578125t0.8134765625-2.693359375t1.216796875-1.9755859375t1.75-0.765625t1.72265625,0.65625t1.1142578125,1.708984375t0.65625,2.337890625t0.341796875,2.556640625t0.1435546875,2.37890625t0.0546875,1.77734375q0.02734375,0.423828125,0.205078125,0.5673828125t0.3896484375,0.1982421875t0.3828125,0.123046875t0.1708984375,0.341796875q0,0.314453125-0.3828125,0.4375t-0.6015625,0.150390625q0.13671875,1.708984375,0.3759765625,3.36328125t0.6357421875,3.3359375q0.0546875,0.314453125,0.150390625,0.6357421875t0.095703125,0.6220703125q0,0.21875-0.150390625,0.3623046875t-0.3896484375,0.2255859375t-0.478515625,0.109375t-0.4033203125,0.02734375q-0.615234375,0-1.0390625-0.232421875t-0.560546875-0.888671875q-0.369140625-1.763671875-0.724609375-3.705078125q-0.30078125-1.681640625-0.30078125-3.267578125q0-0.24609375,0.013671875-0.4921875q-1.1484375,0-2.310546875,0.0546875t-2.228515625,0.41015625q-0.02734375,0.369140625-0.13671875,1.39453125t-0.24609375,2.201171875t-0.2802734375,2.2490234375t-0.1708984375,1.5244140625q-0.02734375,0.19140625-0.2802734375,0.3623046875t-0.546875,0.1845703125t-0.51953125-0.1845703125t-0.2255859375-0.7041015625z M18.30859375,30.400390625q1.06640625-0.24609375,2.1396484375-0.287109375t2.1669921875-0.095703125q-0.0546875-0.341796875-0.02734375-0.7041015625t0.02734375-0.7314453125q0-0.806640625-0.041015625-1.873046875t-0.123046875-2.16015625t-0.2119140625-2.1533203125t-0.2939453125-1.88671875t-0.3486328125-1.3193359375t-0.4033203125-0.4921875q-0.423828125,0.02734375-0.7998046875,0.7314453125t-0.68359375,1.791015625t-0.560546875,2.43359375t-0.423828125,2.6318359375t-0.2802734375,2.392578125t-0.13671875,1.72265625z M29.55603515625,31.97265625l0-2.16015625q0-2.2421875,0.0751953125-4.4501953125t0.1298828125-4.4501953125q0-0.423828125-0.02734375-0.943359375q-0.013671875-0.150390625-0.013671875-0.287109375q0-0.341796875,0.0546875-0.669921875q0.068359375-0.4375,0.3349609375-0.751953125t0.8818359375-0.314453125q0.505859375,0,0.7724609375,0.109375t0.3759765625,0.3212890625t0.123046875,0.533203125t0.013671875,0.7451171875q0,2.26953125-0.0546875,4.552734375q-0.041015625,1.517578125-0.041015625,3.03515625q0,0.765625,0.013671875,1.53125q0.02734375,2.26953125,0.2119140625,4.5390625t0.6220703125,4.484375q1.3671875-0.0546875,2.734375-0.13671875t2.734375-0.08203125q0.13671875,0,0.3896484375,0.02734375t0.505859375,0.095703125t0.4306640625,0.177734375t0.177734375,0.314453125q0,0.13671875-0.123046875,0.232421875t-0.232421875,0.150390625l-0.02734375,0q-0.21875,0.109375-0.8681640625,0.2119140625t-1.4765625,0.1572265625t-1.736328125,0.095703125t-1.708984375,0.068359375t-1.3876953125,0.041015625t-0.724609375,0.013671875l-0.123046875,0q-0.328125,0-0.73828125-0.109375q-0.4921875-0.13671875-0.615234375-0.533203125q-0.24609375-1.01171875-0.3896484375-2.0986328125t-0.21875-2.2080078125t-0.0751953125-2.2421875z M41.9655859375,28.185546875q0-0.13671875,0.2119140625-0.232421875t0.505859375-0.13671875t0.560546875-0.068359375t0.4033203125-0.02734375q0.0546875-0.369140625,0.1572265625-0.998046875t0.2529296875-1.3466796875t0.3759765625-1.4423828125t0.546875-1.3125t0.7587890625-0.9638671875t1.025390625-0.3759765625l-0.02734375,0q0.19140625-0.02734375,0.3759765625-0.041015625t0.3759765625-0.013671875q0.451171875,0,0.9775390625,0.177734375t0.9775390625,0.4990234375t0.7587890625,0.7724609375t0.3076171875,0.95703125q0,0.396484375-0.1982421875,0.8544921875t-0.6904296875,0.4580078125q-0.1640625,0-0.3349609375-0.08203125t-0.3212890625-0.177734375q0.0546875-0.314453125,0.0546875-0.62890625q0-0.1640625-0.013671875-0.314453125q-0.041015625-0.478515625-0.205078125-0.8408203125t-0.4716796875-0.57421875t-0.7314453125-0.1572265625q-0.560546875,0.08203125-0.8408203125,0.68359375t-0.3896484375,1.4287109375t-0.13671875,1.681640625t-0.109375,1.3876953125q0.642578125,0.0546875,1.0869140625,0.0546875l1.1142578125,0q0.109375,0,0.3759765625,0.013671875t0.51953125,0.0546875t0.451171875,0.1435546875t0.1982421875,0.2666015625q0,0.13671875-0.109375,0.2392578125t-0.2666015625,0.1435546875t-0.328125,0.0546875t-0.2802734375,0.013671875q-0.478515625,0-0.8134765625-0.041015625t-0.642578125-0.0751953125t-0.642578125-0.0341796875t-0.7861328125,0.095703125q-0.13671875,1.517578125-0.21875,3.0078125t-0.08203125,3.0078125q0,2.37890625,0.150390625,4.662109375t0.546875,4.634765625q0.0546875,0.21875,0.095703125,0.4990234375t0.041015625,0.5400390625q0,0.24609375-0.150390625,0.4033203125t-0.3759765625,0.2255859375t-0.46484375,0.095703125t-0.4306640625,0.02734375q-0.779296875,0-1.09375-0.2392578125t-0.451171875-0.9638671875q-0.341796875-1.927734375-0.4375-3.8896484375t-0.095703125-3.9580078125q0-1.955078125,0.1435546875-3.9033203125t0.3623046875-3.8759765625q-0.109375,0-0.3759765625,0.013671875t-0.533203125,0t-0.46484375-0.095703125t-0.1982421875-0.287109375z"/><path fill="#32c789" d="M56.678359375,28.7353515625l0-1.1572265625q0-1.201171875,0.040283203125-2.384033203125t0.069580078125-2.384033203125q0-0.22705078125-0.0146484375-0.50537109375q-0.00732421875-0.08056640625-0.00732421875-0.15380859375q0-0.18310546875,0.029296875-0.35888671875q0.03662109375-0.234375,0.179443359375-0.40283203125t0.472412109375-0.16845703125q0.27099609375,0,0.413818359375,0.05859375t0.201416015625,0.172119140625t0.06591796875,0.28564453125t0.00732421875,0.399169921875q0,1.2158203125-0.029296875,2.43896484375q-0.02197265625,0.81298828125-0.02197265625,1.6259765625q0,0.41015625,0.00732421875,0.8203125q0.0146484375,1.2158203125,0.113525390625,2.431640625t0.333251953125,2.40234375q0.732421875-0.029296875,1.46484375-0.0732421875t1.46484375-0.0439453125q0.0732421875,0,0.208740234375,0.0146484375t0.27099609375,0.05126953125t0.230712890625,0.09521484375t0.09521484375,0.16845703125q0,0.0732421875-0.06591796875,0.12451171875t-0.12451171875,0.08056640625l-0.0146484375,0q-0.1171875,0.05859375-0.465087890625,0.113525390625t-0.791015625,0.084228515625t-0.93017578125,0.05126953125t-0.91552734375,0.03662109375t-0.743408203125,0.02197265625t-0.38818359375,0.00732421875l-0.06591796875,0q-0.17578125,0-0.3955078125-0.05859375q-0.263671875-0.0732421875-0.32958984375-0.28564453125q-0.1318359375-0.5419921875-0.208740234375-1.124267578125t-0.1171875-1.182861328125t-0.040283203125-1.201171875z M63.326333007813,29.59228515625q0-0.673828125,0.157470703125-1.322021484375t0.267333984375-1.292724609375q0.029296875-0.16845703125,0.230712890625-0.208740234375t0.340576171875-0.040283203125q0.24169921875,0,0.38818359375,0.0732421875q0.05859375,0.029296875,0.10986328125,0.06591796875t0.05126953125,0.09521484375q0,0.6298828125-0.150146484375,1.23046875t-0.150146484375,1.2744140625q0,0.22705078125,0.032958984375,0.428466796875t0.062255859375,0.399169921875l0.0439453125,0.21240234375q0,0.05859375,0.00732421875,0.1025390625t0.02197265625,0.1025390625q0,0.1318359375-0.186767578125,0.179443359375t-0.325927734375,0.047607421875q-0.21240234375,0-0.391845703125-0.084228515625t-0.281982421875-0.289306640625l-0.1025390625-0.21240234375q-0.087890625-0.16845703125-0.087890625-0.377197265625t-0.03662109375-0.384521484375z M63.795083007813,25.18310546875l0-0.13916015625q0-0.34423828125,0.172119140625-0.615234375t0.516357421875-0.27099609375q0.0439453125,0,0.084228515625,0.00732421875t0.084228515625,0.00732421875q0.087890625,0.0146484375,0.230712890625,0.069580078125t0.142822265625,0.172119140625l0,0.0146484375q-0.029296875,0.05859375-0.03662109375,0.120849609375t-0.03662109375,0.106201171875l0.0146484375-0.0146484375q-0.087890625,0.22705078125-0.142822265625,0.3662109375t-0.120849609375,0.223388671875t-0.164794921875,0.120849609375t-0.281982421875,0.03662109375q-0.029296875,0-0.1025390625-0.00732421875t-0.157470703125-0.029296875t-0.142822265625-0.05859375t-0.05859375-0.10986328125z M66.524599609375,26.70654296875q0-0.0732421875,0.113525390625-0.12451171875t0.27099609375-0.0732421875t0.30029296875-0.03662109375t0.216064453125-0.0146484375q0.029296875-0.19775390625,0.084228515625-0.53466796875t0.135498046875-0.721435546875t0.201416015625-0.772705078125t0.29296875-0.703125t0.406494140625-0.516357421875t0.54931640625-0.201416015625l-0.0146484375,0q0.1025390625-0.0146484375,0.201416015625-0.02197265625t0.201416015625-0.00732421875q0.24169921875,0,0.523681640625,0.09521484375t0.523681640625,0.267333984375t0.406494140625,0.413818359375t0.164794921875,0.5126953125q0,0.21240234375-0.106201171875,0.457763671875t-0.369873046875,0.245361328125q-0.087890625,0-0.179443359375-0.0439453125t-0.172119140625-0.09521484375q0.029296875-0.16845703125,0.029296875-0.3369140625q0-0.087890625-0.00732421875-0.16845703125q-0.02197265625-0.25634765625-0.10986328125-0.450439453125t-0.252685546875-0.3076171875t-0.391845703125-0.084228515625q-0.30029296875,0.0439453125-0.450439453125,0.3662109375t-0.208740234375,0.765380859375t-0.0732421875,0.90087890625t-0.05859375,0.743408203125q0.34423828125,0.029296875,0.582275390625,0.029296875l0.596923828125,0q0.05859375,0,0.201416015625,0.00732421875t0.2783203125,0.029296875t0.24169921875,0.076904296875t0.106201171875,0.142822265625q0,0.0732421875-0.05859375,0.128173828125t-0.142822265625,0.076904296875t-0.17578125,0.029296875t-0.150146484375,0.00732421875q-0.25634765625,0-0.435791015625-0.02197265625t-0.34423828125-0.040283203125t-0.34423828125-0.018310546875t-0.421142578125,0.05126953125q-0.0732421875,0.81298828125-0.1171875,1.611328125t-0.0439453125,1.611328125q0,1.2744140625,0.08056640625,2.49755859375t0.29296875,2.48291015625q0.029296875,0.1171875,0.05126953125,0.267333984375t0.02197265625,0.289306640625q0,0.1318359375-0.08056640625,0.216064453125t-0.201416015625,0.120849609375t-0.2490234375,0.05126953125t-0.230712890625,0.0146484375q-0.41748046875,0-0.5859375-0.128173828125t-0.24169921875-0.516357421875q-0.18310546875-1.03271484375-0.234375-2.083740234375t-0.05126953125-2.120361328125q0-1.04736328125,0.076904296875-2.091064453125t0.194091796875-2.076416015625q-0.05859375,0-0.201416015625,0.00732421875t-0.28564453125,0t-0.2490234375-0.05126953125t-0.106201171875-0.15380859375z M71.627163085937,25.1171875q0-0.1025390625,0.2197265625-0.17578125t0.498046875-0.120849609375t0.538330078125-0.069580078125t0.355224609375-0.03662109375q0-0.19775390625,0.0146484375-0.399169921875t0.08056640625-0.35888671875t0.208740234375-0.252685546875t0.399169921875-0.09521484375q0.21240234375,0,0.322265625,0.05126953125t0.234375,0.21240234375q0.029296875,0.087890625,0.029296875,0.16845703125l0,0.245361328125t-0.0146484375,0.252685546875q0.27099609375-0.029296875,0.538330078125-0.069580078125t0.538330078125-0.040283203125q0.19775390625,0,0.27099609375,0.00732421875t0.146484375,0.17578125q0.05859375,0.16845703125-0.142822265625,0.25634765625t-0.4833984375,0.1318359375t-0.560302734375,0.06591796875t-0.3369140625,0.02197265625q-0.087890625,1.259765625-0.179443359375,2.49755859375t-0.091552734375,2.51220703125q0,0.5712890625,0.03662109375,1.17919921875t0.205078125,1.14990234375q0.0439453125,0.16845703125,0.146484375,0.31494140625t0.1025390625,0.31494140625q0,0.1025390625-0.08056640625,0.1611328125t-0.194091796875,0.098876953125t-0.22705078125,0.047607421875t-0.186767578125,0.00732421875q-0.46142578125,0-0.703125-0.34423828125t-0.347900390625-0.823974609375t-0.113525390625-0.985107421875t-0.00732421875-0.8203125q0-0.64453125,0.025634765625-1.318359375t0.062255859375-1.3330078125t0.1025390625-1.2890625t0.15380859375-1.171875q-0.25634765625,0.029296875-0.501708984375,0.06591796875t-0.501708984375,0.03662109375q-0.05859375,0-0.157470703125-0.00732421875t-0.186767578125-0.03662109375t-0.150146484375-0.08056640625t-0.062255859375-0.146484375z M79.635024414062,22.07763671875q0-0.1025390625,0.142822265625-0.157470703125t0.186767578125-0.054931640625l0.27099609375-0.0439453125q0.27099609375-0.0439453125,0.54931640625-0.076904296875t0.5419921875-0.062255859375q0.93017578125-0.1171875,1.8603515625-0.230712890625t1.875-0.113525390625q0.0732421875,0,0.201416015625,0.00732421875t0.25634765625,0.040283203125t0.2197265625,0.091552734375t0.091552734375,0.1611328125q0,0.0732421875-0.069580078125,0.128173828125t-0.164794921875,0.084228515625t-0.194091796875,0.03662109375t-0.157470703125,0.00732421875l-0.128173828125,0t-0.128173828125-0.029296875q-0.38818359375,0-0.765380859375,0.03662109375t-0.765380859375,0.06591796875q0.1025390625,0.1171875,0.10986328125,0.32958984375t0.0146484375,0.3662109375q0,2.5927734375,0.03662109375,5.15625t0.06591796875,5.17822265625l0,0.0146484375q-0.24169921875,0.21240234375-0.413818359375,0.27099609375t-0.347900390625,0.05859375q-0.16845703125,0-0.340576171875-0.062255859375t-0.413818359375-0.267333984375l0-0.0146484375l0.05859375-5.74951171875q0-0.5712890625-0.0146484375-1.259765625t-0.0146484375-1.395263671875t0.02197265625-1.365966796875t0.1171875-1.14990234375q-0.43212890625,0.0439453125-0.91552734375,0.1318359375q-0.41748046875,0.0732421875-0.79833984375,0.0732421875l-0.1318359375,0q-0.029296875,0-0.172119140625,0.00732421875t-0.29296875-0.00732421875t-0.27099609375-0.05859375t-0.120849609375-0.146484375z M86.876259765625,30.56640625l0-0.6884765625q0-0.37353515625,0.018310546875-1.058349609375t0.047607421875-1.50146484375t0.08056640625-1.702880859375t0.1171875-1.673583984375t0.157470703125-1.409912109375t0.208740234375-0.9228515625q0.0732421875-0.16845703125,0.24169921875-0.21240234375t0.32958984375-0.0439453125q0.25634765625,0,0.450439453125,0.113525390625t0.194091796875,0.413818359375l-0.1318359375,0.146484375q-0.25634765625,1.69189453125-0.32958984375,3.3984375t-0.1025390625,3.4130859375q0.18310546875-0.28564453125,0.413818359375-0.560302734375t0.5126953125-0.487060546875t0.60791015625-0.340576171875t0.714111328125-0.128173828125q0.498046875,0,0.823974609375,0.30029296875t0.538330078125,0.780029296875t0.31494140625,1.072998046875t0.157470703125,1.1865234375t0.076904296875,1.124267578125t0.06591796875,0.882568359375q-0.13916015625,0.1904296875-0.41015625,0.1904296875l-0.02197265625,0q-0.1171875,0-0.25634765625-0.029296875t-0.18310546875-0.146484375l0.0146484375,0.0146484375q-0.1025390625-0.22705078125-0.13916015625-0.655517578125t-0.05859375-0.94482421875t-0.076904296875-1.058349609375t-0.164794921875-0.9814453125t-0.322265625-0.72509765625t-0.5712890625-0.30029296875l-0.0439453125,0q-0.43212890625,0-0.72509765625,0.263671875q-0.3076171875,0.2783203125-0.498046875,0.732421875t-0.29296875,1.0107421875t-0.157470703125,1.072998046875t-0.084228515625,0.9375t-0.0732421875,0.618896484375q-0.0439453125,0.16845703125-0.260009765625,0.223388671875t-0.369873046875,0.054931640625q-0.35888671875,0-0.5859375-0.205078125q-0.16845703125-0.40283203125-0.19775390625-1.00341796875t-0.029296875-1.171875z M93.883120117188,30.068359375q0-0.5126953125,0.113525390625-1.20849609375t0.384521484375-1.318359375t0.714111328125-1.058349609375t1.116943359375-0.435791015625q0.6298828125,0,0.94482421875,0.362548828125t0.31494140625,0.977783203125q0,0.40283203125-0.150146484375,0.882568359375t-0.428466796875,0.908203125t-0.6591796875,0.714111328125t-0.849609375,0.28564453125l-0.1904296875-0.0146484375q0,0.19775390625,0.05859375,0.531005859375t0.172119140625,0.662841796875t0.29296875,0.57861328125t0.435791015625,0.2490234375q0.37353515625,0,0.7177734375-0.30029296875t0.65185546875-0.66650390625t0.5712890625-0.66650390625t0.4833984375-0.30029296875q0.1171875,0,0.24169921875,0.03662109375t0.13916015625,0.205078125q0,0.1025390625-0.054931640625,0.16845703125t-0.098876953125,0.146484375q-0.22705078125,0.38818359375-0.494384765625,0.73974609375t-0.604248046875,0.63720703125t-0.736083984375,0.450439453125t-0.882568359375,0.164794921875q-0.6298828125,0-1.04736328125-0.223388671875t-0.673828125-0.6005859375t-0.369873046875-0.87158203125t-0.113525390625-1.036376953125z M95.194155273438,29.51171875l0.205078125,0.18310546875q0.146484375,0.1318359375,0.29296875,0.05859375t0.263671875-0.267333984375t0.216064453125-0.479736328125t0.17578125-0.5859375t0.113525390625-0.5859375t0.03662109375-0.47607421875l0-0.2490234375t-0.02197265625-0.263671875t-0.076904296875-0.208740234375t-0.172119140625-0.106201171875q-0.03662109375-0.00732421875-0.06591796875-0.00732421875q-0.2490234375,0-0.4248046875,0.31494140625q-0.1904296875,0.3515625-0.3076171875,0.853271484375t-0.16845703125,1.029052734375t-0.06591796875,0.791015625z M102.87242675781,31.26953125q0.0439453125-1.1865234375,0.076904296875-2.431640625t0.062255859375-2.457275390625t0.0439453125-2.354736328125t0.0146484375-2.13134765625q0.0146484375-0.19775390625,0.34423828125-0.31494140625t0.787353515625-0.172119140625t0.966796875-0.069580078125t0.904541015625-0.0146484375q0.087890625,0,0.3662109375-0.00732421875l0.13916015625,0q0.21240234375,0,0.44677734375,0.0146484375q0.3076171875,0.02197265625,0.538330078125,0.09521484375t0.230712890625,0.21240234375q0,0.1025390625-0.08056640625,0.164794921875t-0.186767578125,0.091552734375t-0.2197265625,0.03662109375t-0.157470703125,0.00732421875q-0.6884765625,0-1.3623046875-0.02197265625q-0.18310546875-0.00732421875-0.37353515625-0.00732421875q-0.498046875,0-1.0107421875,0.0439453125q0.029296875,0.087890625,0.047607421875,0.531005859375t0.018310546875,0.999755859375t-0.00732421875,1.087646484375t0,0.816650390625l0,1.904296875q0.22705078125-0.0146484375,0.44677734375-0.0146484375l0.439453125,0l0.29296875-0.0146484375q0.146484375-0.00732421875,0.3076171875-0.00732421875q0.16845703125,0,0.34423828125,0.00732421875q0.3515625,0.0146484375,0.640869140625,0.084228515625t0.289306640625,0.245361328125q0,0.1318359375-0.10986328125,0.194091796875t-0.245361328125,0.091552734375t-0.25634765625,0.029296875l-0.135498046875,0q-0.41748046875,0-0.867919921875-0.029296875t-0.838623046875-0.029296875q-0.0732421875,0.029296875-0.157470703125,0.02197265625t-0.150146484375-0.00732421875q0,1.0986328125-0.02197265625,2.186279296875t-0.05126953125,2.164306640625q0,0.21240234375-0.267333984375,0.2783203125t-0.509033203125,0.06591796875q-0.27099609375,0-0.428466796875-0.06591796875t-0.223388671875-0.216064453125t-0.08056640625-0.399169921875q-0.00732421875-0.13916015625-0.0146484375-0.3076171875q0-0.13916015625,0.00732421875-0.30029296875z M108.54627929687,29.12353515625q0-0.146484375,0.032958984375-0.38818359375t0.076904296875-0.479736328125t0.1025390625-0.443115234375t0.13916015625-0.263671875q0.05859375-0.05859375,0.201416015625-0.1171875t0.30029296875-0.084228515625t0.29296875,0.02197265625t0.164794921875,0.194091796875q-0.1025390625,0.1318359375-0.186767578125,0.450439453125t-0.128173828125,0.706787109375q-0.03662109375,0.32958984375-0.03662109375,0.68115234375l0,0.12451171875q0.00732421875,0.41015625,0.0732421875,0.75439453125t0.201416015625,0.567626953125t0.377197265625,0.223388671875q0.5126953125,0,0.9375-0.472412109375t0.75439453125-1.153564453125t0.57861328125-1.446533203125t0.4248046875-1.336669921875q0.0439453125-0.16845703125,0.208740234375-0.22705078125t0.355224609375-0.040283203125t0.340576171875,0.091552734375t0.179443359375,0.17578125q-0.146484375,1.23046875-0.230712890625,2.4609375t-0.084228515625,2.4755859375q0,0.24169921875,0.02197265625,0.443115234375t-0.02197265625,0.34423828125t-0.194091796875,0.22705078125t-0.479736328125,0.084228515625q-0.0732421875,0-0.186767578125-0.0146484375t-0.234375-0.047607421875t-0.205078125-0.098876953125t-0.084228515625-0.15380859375q0-0.5419921875,0.040283203125-1.11328125t0.113525390625-1.10595703125q-0.19775390625,0.28564453125-0.435791015625,0.567626953125t-0.523681640625,0.509033203125t-0.615234375,0.362548828125t-0.71044921875,0.135498046875q-0.5419921875,0-0.853271484375-0.25634765625t-0.46875-0.640869140625t-0.19775390625-0.838623046875t-0.040283203125-0.87890625z M115.13565917969,25.1171875q0-0.1025390625,0.2197265625-0.17578125t0.498046875-0.120849609375t0.538330078125-0.069580078125t0.355224609375-0.03662109375q0-0.19775390625,0.0146484375-0.399169921875t0.08056640625-0.35888671875t0.208740234375-0.252685546875t0.399169921875-0.09521484375q0.21240234375,0,0.322265625,0.05126953125t0.234375,0.21240234375q0.029296875,0.087890625,0.029296875,0.16845703125l0,0.245361328125t-0.0146484375,0.252685546875q0.27099609375-0.029296875,0.538330078125-0.069580078125t0.538330078125-0.040283203125q0.19775390625,0,0.27099609375,0.00732421875t0.146484375,0.17578125q0.05859375,0.16845703125-0.142822265625,0.25634765625t-0.4833984375,0.1318359375t-0.560302734375,0.06591796875t-0.3369140625,0.02197265625q-0.087890625,1.259765625-0.179443359375,2.49755859375t-0.091552734375,2.51220703125q0,0.5712890625,0.03662109375,1.17919921875t0.205078125,1.14990234375q0.0439453125,0.16845703125,0.146484375,0.31494140625t0.1025390625,0.31494140625q0,0.1025390625-0.08056640625,0.1611328125t-0.194091796875,0.098876953125t-0.22705078125,0.047607421875t-0.186767578125,0.00732421875q-0.46142578125,0-0.703125-0.34423828125t-0.347900390625-0.823974609375t-0.113525390625-0.985107421875t-0.00732421875-0.8203125q0-0.64453125,0.025634765625-1.318359375t0.062255859375-1.3330078125t0.1025390625-1.2890625t0.15380859375-1.171875q-0.25634765625,0.029296875-0.501708984375,0.06591796875t-0.501708984375,0.03662109375q-0.05859375,0-0.157470703125-0.00732421875t-0.186767578125-0.03662109375t-0.150146484375-0.08056640625t-0.062255859375-0.146484375z M120.4359765625,29.12353515625q0-0.146484375,0.032958984375-0.38818359375t0.076904296875-0.479736328125t0.1025390625-0.443115234375t0.13916015625-0.263671875q0.05859375-0.05859375,0.201416015625-0.1171875t0.30029296875-0.084228515625t0.29296875,0.02197265625t0.164794921875,0.194091796875q-0.1025390625,0.1318359375-0.186767578125,0.450439453125t-0.128173828125,0.706787109375q-0.03662109375,0.32958984375-0.03662109375,0.68115234375l0,0.12451171875q0.00732421875,0.41015625,0.0732421875,0.75439453125t0.201416015625,0.567626953125t0.377197265625,0.223388671875q0.5126953125,0,0.9375-0.472412109375t0.75439453125-1.153564453125t0.57861328125-1.446533203125t0.4248046875-1.336669921875q0.0439453125-0.16845703125,0.208740234375-0.22705078125t0.355224609375-0.040283203125t0.340576171875,0.091552734375t0.179443359375,0.17578125q-0.146484375,1.23046875-0.230712890625,2.4609375t-0.084228515625,2.4755859375q0,0.24169921875,0.02197265625,0.443115234375t-0.02197265625,0.34423828125t-0.194091796875,0.22705078125t-0.479736328125,0.084228515625q-0.0732421875,0-0.186767578125-0.0146484375t-0.234375-0.047607421875t-0.205078125-0.098876953125t-0.084228515625-0.15380859375q0-0.5419921875,0.040283203125-1.11328125t0.113525390625-1.10595703125q-0.19775390625,0.28564453125-0.435791015625,0.567626953125t-0.523681640625,0.509033203125t-0.615234375,0.362548828125t-0.71044921875,0.135498046875q-0.5419921875,0-0.853271484375-0.25634765625t-0.46875-0.640869140625t-0.19775390625-0.838623046875t-0.040283203125-0.87890625z M127.32564941406,27.71728515625q0-0.30029296875,0.106201171875-0.50537109375t0.450439453125-0.205078125q0.1318359375,0,0.32958984375,0.040283203125t0.22705078125,0.201416015625q0.0732421875,0.43212890625,0.08056640625,0.9375t0.05126953125,0.9521484375q0.16845703125-0.32958984375,0.43212890625-0.71044921875t0.6005859375-0.703125t0.732421875-0.53466796875t0.8056640625-0.21240234375q0.029296875,0,0.10986328125,0.02197265625t0.150146484375,0.062255859375t0.084228515625,0.091552734375t-0.08056640625,0.09521484375q-0.029296875,0.087890625-0.12451171875,0.106201171875t-0.16845703125,0.018310546875q-0.0439453125,0-0.13916015625-0.03662109375q-0.5419921875,0.28564453125-0.9228515625,0.7763671875t-0.62255859375,1.087646484375t-0.3515625,1.259765625t-0.10986328125,1.292724609375q0,0.31494140625-0.142822265625,0.380859375t-0.457763671875,0.06591796875q-0.16845703125,0-0.355224609375-0.03662109375t-0.260009765625-0.234375q-0.1318359375-0.41748046875-0.216064453125-0.95947265625t-0.128173828125-1.116943359375t-0.062255859375-1.131591796875t-0.018310546875-1.00341796875z M132.53075195312,30.068359375q0-0.5126953125,0.113525390625-1.20849609375t0.384521484375-1.318359375t0.714111328125-1.058349609375t1.116943359375-0.435791015625q0.6298828125,0,0.94482421875,0.362548828125t0.31494140625,0.977783203125q0,0.40283203125-0.150146484375,0.882568359375t-0.428466796875,0.908203125t-0.6591796875,0.714111328125t-0.849609375,0.28564453125l-0.1904296875-0.0146484375q0,0.19775390625,0.05859375,0.531005859375t0.172119140625,0.662841796875t0.29296875,0.57861328125t0.435791015625,0.2490234375q0.37353515625,0,0.7177734375-0.30029296875t0.65185546875-0.66650390625t0.5712890625-0.66650390625t0.4833984375-0.30029296875q0.1171875,0,0.24169921875,0.03662109375t0.13916015625,0.205078125q0,0.1025390625-0.054931640625,0.16845703125t-0.098876953125,0.146484375q-0.22705078125,0.38818359375-0.494384765625,0.73974609375t-0.604248046875,0.63720703125t-0.736083984375,0.450439453125t-0.882568359375,0.164794921875q-0.6298828125,0-1.04736328125-0.223388671875t-0.673828125-0.6005859375t-0.369873046875-0.87158203125t-0.113525390625-1.036376953125z M133.84178710937,29.51171875l0.205078125,0.18310546875q0.146484375,0.1318359375,0.29296875,0.05859375t0.263671875-0.267333984375t0.216064453125-0.479736328125t0.17578125-0.5859375t0.113525390625-0.5859375t0.03662109375-0.47607421875l0-0.2490234375t-0.02197265625-0.263671875t-0.076904296875-0.208740234375t-0.172119140625-0.106201171875q-0.03662109375-0.00732421875-0.06591796875-0.00732421875q-0.2490234375,0-0.4248046875,0.31494140625q-0.1904296875,0.3515625-0.3076171875,0.853271484375t-0.16845703125,1.029052734375t-0.06591796875,0.791015625z"/></svg>
